<svg xmlns="http://www.w3.org/2000/svg" viewBox="0 0 451.5842 168.0000" width="451.5842" height="168.0000" role="img" aria-label="Cellr"><title>Cellr</title><rect x="31.5000" y="31.5000" width="105.0000" height="105.0000" rx="24.3750" fill="#0f0f10"/><rect x="50.2500" y="53.0625" width="67.5000" height="8.4375" rx="4.2188" fill="#fafaf9"/><g fill="#0f0f10"><g transform="translate(176.0000,130.0523) scale(0.058594,-0.058594)"><path d="M785 -20Q589 -20 435.0 71.0Q281 162 192.0 333.0Q103 504 103 744Q103 985 192.5 1156.5Q282 1328 436.5 1419.0Q591 1510 785 1510Q907 1510 1013.5 1475.5Q1120 1441 1203.5 1374.5Q1287 1308 1341.0 1212.0Q1395 1116 1413 994H1144Q1131 1061 1099.5 1112.0Q1068 1163 1021.0 1198.5Q974 1234 915.0 1252.5Q856 1271 789 1271Q667 1271 572.5 1209.5Q478 1148 424.5 1030.5Q371 913 371 744Q371 573 425.0 456.0Q479 339 573.5 279.0Q668 219 788 219Q855 219 914.0 237.5Q973 256 1020.5 291.5Q1068 327 1100.0 378.5Q1132 430 1144 496H1414Q1399 389 1348.5 295.5Q1298 202 1216.0 131.0Q1134 60 1025.5 20.0Q917 -20 785 -20Z"/></g><g transform="translate(259.8580,130.0523) scale(0.058594,-0.058594)"><path d="M632 -23Q463 -23 341.5 48.0Q220 119 154.5 248.0Q89 377 89 552Q89 725 153.5 855.0Q218 985 336.5 1058.5Q455 1132 615 1132Q717 1132 809.5 1099.0Q902 1066 973.5 997.0Q1045 928 1085.5 821.5Q1126 715 1126 568V486H347Q351 394 383 328Q419 255 484.0 218.0Q549 181 635 181Q692 181 738.5 197.5Q785 214 819.0 246.5Q853 279 870 326L1109 277Q1082 187 1017.0 119.5Q952 52 854.5 14.5Q757 -23 632 -23ZM348 663H873Q867 725 846 777Q817 848 759.5 888.0Q702 928 616.0 928.0Q530 928 470.0 887.5Q410 847 379 780Q354 726 348 663Z"/></g><g transform="translate(326.2550,130.0523) scale(0.058594,-0.058594)"><path d="M398 1490V0H138V1490Z"/></g><g transform="translate(353.1012,130.0523) scale(0.058594,-0.058594)"><path d="M398 1490V0H138V1490Z"/></g><g transform="translate(379.9475,130.0523) scale(0.058594,-0.058594)"><path d="M138 0V1118H390V931H402Q432 1028 507.0 1080.5Q582 1133 678 1133Q700 1133 727.0 1131.0Q754 1129 773 1126V887Q757 892 721.0 896.0Q685 900 650 900Q578 900 520.5 869.0Q463 838 430.5 783.5Q398 729 398 658V0Z"/></g></g></svg>